<?xml version="1.0" standalone="no"?>
<!DOCTYPE svg PUBLIC "-//W3C//DTD SVG 20010904//EN"
 "http://www.w3.org/TR/2001/REC-SVG-20010904/DTD/svg10.dtd">
<svg version="1.0" xmlns="http://www.w3.org/2000/svg"
 width="639.000000pt" height="640.000000pt" viewBox="0 0 639.000000 640.000000"
 preserveAspectRatio="xMidYMid meet">

<g transform="translate(0.000000,640.000000) scale(0.100000,-0.100000)"
fill="#000000" stroke="none">
<path d="M2725 6090 c10 -11 20 -20 23 -20 3 0 -3 9 -13 20 -10 11 -20 20 -23
20 -3 0 3 -9 13 -20z"/>
<path d="M2809 5995 c5 -11 17 -29 26 -40 l16 -20 -10 20 c-5 11 -17 29 -26
40 l-16 20 10 -20z"/>
<path d="M2557 5909 c7 -7 15 -10 18 -7 3 3 -2 9 -12 12 -14 6 -15 5 -6 -5z"/>
<path d="M2687 5844 c18 -16 44 -42 58 -59 14 -16 25 -25 25 -18 0 14 -66 81
-95 95 -11 6 -5 -3 12 -18z"/>
<path d="M4028 5603 c7 -3 16 -2 19 1 4 3 -2 6 -13 5 -11 0 -14 -3 -6 -6z"/>
<path d="M3135 5465 c79 -23 104 -26 68 -7 -19 10 -115 32 -136 31 -7 0 24
-11 68 -24z"/>
<path d="M6355 5451 c-3 -6 4 -15 15 -21 17 -9 20 -8 20 10 0 20 -24 28 -35
11z"/>
<path d="M3284 5416 c11 -9 24 -16 30 -16 12 0 7 5 -24 19 -24 11 -24 11 -6
-3z"/>
<path d="M6377 5305 c-4 -8 -2 -17 3 -20 6 -4 10 3 10 14 0 25 -6 27 -13 6z"/>
<path d="M6372 5258 c-6 -7 -12 -26 -14 -43 -3 -28 -6 -30 -52 -33 -32 -2 -52
1 -57 10 -6 8 -9 1 -9 -20 0 -20 -4 -31 -10 -27 -6 4 -8 12 -4 18 3 7 -4 1
-16 -13 -21 -24 -22 -30 -16 -225 5 -184 -2 -292 -28 -432 -13 -73 -111 -326
-132 -344 -8 -6 -14 -16 -14 -22 0 -17 -80 -119 -144 -183 -66 -65 -233 -186
-307 -222 -58 -28 -146 -44 -204 -38 -40 5 -45 3 -45 -14 0 -38 49 -229 75
-292 15 -35 33 -83 42 -108 23 -69 152 -375 183 -433 14 -29 55 -105 90 -170
67 -128 293 -589 367 -752 45 -98 163 -403 181 -467 5 -18 29 -98 52 -177 23
-80 50 -186 60 -235 18 -89 18 -46 19 2072 1 1189 -1 2162 -3 2162 -2 0 -8 -6
-14 -12z m-532 -2068 c0 -5 -4 -10 -10 -10 -5 0 -10 5 -10 10 0 6 5 10 10 10
6 0 10 -4 10 -10z"/>
<path d="M6310 5240 c-12 -7 -12 -12 -3 -21 10 -10 14 -9 19 5 8 22 2 27 -16
16z"/>
<path d="M3560 5215 c13 -14 26 -25 28 -25 3 0 -5 11 -18 25 -13 14 -26 25
-28 25 -3 0 5 -11 18 -25z"/>
<path d="M3614 5147 c16 -20 30 -37 33 -37 7 0 -36 58 -49 66 -7 4 1 -9 16
-29z"/>
<path d="M4324 5050 c25 -36 85 -121 134 -190 49 -69 94 -135 100 -146 23 -43
124 -185 129 -181 8 9 -57 127 -134 239 -96 141 -155 218 -222 288 l-53 55 46
-65z"/>
<path d="M3676 5047 c3 -10 9 -15 12 -12 3 3 0 11 -7 18 -10 9 -11 8 -5 -6z"/>
<path d="M2471 5024 c0 -11 3 -14 6 -6 3 7 2 16 -1 19 -3 4 -6 -2 -5 -13z"/>
<path d="M2462 4980 c0 -14 2 -19 5 -12 2 6 2 18 0 25 -3 6 -5 1 -5 -13z"/>
<path d="M5830 4970 c0 -9 -9 -11 -30 -7 -20 5 -34 1 -46 -11 -13 -12 -19 -13
-22 -4 -4 14 -32 17 -32 3 0 -5 6 -12 13 -15 10 -5 10 -7 0 -12 -7 -3 -13 -16
-13 -29 0 -27 -38 -55 -75 -55 -24 0 -25 -3 -26 -57 0 -89 -26 -263 -39 -263
-4 0 -10 -17 -13 -37 -7 -39 -105 -244 -132 -273 -8 -9 -15 -24 -15 -33 0 -9
-3 -17 -8 -17 -4 0 -16 -16 -26 -35 -11 -19 -23 -35 -28 -35 -5 0 -7 -4 -4 -9
6 -9 -16 -21 -37 -21 -7 0 -6 5 3 11 13 9 13 10 0 6 -8 -2 -23 2 -32 11 -17
14 -18 13 -18 -9 0 -19 2 -21 10 -9 8 12 10 12 15 -2 10 -25 75 -45 86 -27 5
8 9 10 9 6 0 -4 -8 -20 -17 -35 -17 -26 -17 -27 2 -13 11 8 34 28 51 44 26 23
32 25 37 13 5 -13 13 -12 58 6 83 35 225 180 268 273 7 17 18 39 23 49 62 119
93 326 69 464 -6 31 -12 72 -15 90 -5 34 -16 57 -16 32z"/>
<path d="M2448 4925 c-6 -30 -3 -43 8 -33 3 4 4 19 2 35 l-3 28 -7 -30z"/>
<path d="M3220 4730 c0 -3 10 -48 22 -100 17 -77 21 -129 22 -275 1 -99 -2
-211 -6 -250 -3 -38 -4 -60 -1 -48 2 13 13 29 24 37 15 10 17 15 7 19 -7 3 1
6 17 7 l30 2 -29 7 -29 6 1 180 c1 112 -3 207 -11 252 -7 40 -10 74 -6 75 4 2
-3 23 -16 48 -13 25 -24 43 -25 40z"/>
<path d="M310 4709 c-74 -12 -140 -34 -232 -77 l-78 -35 0 -64 0 -65 33 20
c176 109 268 148 368 156 64 5 119 -5 269 -48 30 -9 101 -21 156 -26 94 -8
110 -13 215 -65 62 -30 118 -55 124 -55 6 0 56 -22 110 -49 232 -113 272 -131
289 -131 10 0 47 -10 83 -22 71 -25 83 -20 83 34 0 15 5 30 10 33 6 3 10 15
10 26 0 12 -4 17 -11 14 -6 -4 -5 3 3 14 10 16 10 23 1 29 -12 8 -6 62 7 62 6
0 19 54 24 102 1 3 4 9 8 13 3 4 2 20 -4 37 l-11 31 -131 -6 c-72 -3 -183 -14
-246 -25 -134 -24 -318 -29 -439 -12 -56 7 -124 27 -199 57 -156 61 -288 77
-442 52z"/>
<path d="M5358 4669 c-21 -11 -38 -26 -38 -34 0 -8 -9 -24 -21 -36 -16 -16
-19 -29 -15 -52 3 -18 2 -38 -3 -45 -5 -8 -3 -29 5 -50 8 -26 9 -41 2 -49 -8
-10 -6 -13 7 -13 14 0 15 -3 6 -14 -10 -12 -8 -17 7 -25 18 -9 24 -4 52 40 18
27 33 58 34 67 1 9 7 33 13 52 14 40 23 134 15 162 -5 22 -16 21 -64 -3z"/>
<path d="M3435 4650 c2 -14 5 -35 5 -47 0 -12 6 -28 13 -35 8 -7 24 -38 36
-68 12 -30 19 -42 16 -25 -4 16 -22 68 -41 115 -19 47 -32 74 -29 60z"/>
<path d="M3980 4656 c0 -8 4 -17 9 -20 5 -4 7 3 4 14 -6 23 -13 26 -13 6z"/>
<path d="M4000 4619 c0 -3 25 -74 55 -157 30 -83 55 -156 55 -163 0 -25 32
-119 41 -119 13 0 11 84 -2 97 -6 6 -35 74 -63 150 -48 125 -85 208 -86 192z"/>
<path d="M1786 4543 c-6 -14 -5 -15 5 -6 7 7 10 15 7 18 -3 3 -9 -2 -12 -12z"/>
<path d="M3854 4330 c0 -153 -5 -223 -22 -324 -12 -71 -21 -131 -18 -133 12
-13 52 230 60 372 2 39 5 72 5 75 1 3 17 -30 35 -72 48 -108 168 -288 193
-288 4 0 -2 10 -13 23 -91 102 -216 354 -199 400 3 7 -5 41 -17 77 l-23 65 -1
-195z"/>
<path d="M5131 4520 c0 -8 4 -24 9 -35 5 -13 9 -14 9 -5 0 8 -4 24 -9 35 -5
13 -9 14 -9 5z"/>
<path d="M4215 4185 c0 -201 -3 -243 -23 -332 -28 -129 -72 -245 -123 -323
-21 -33 -39 -64 -39 -68 0 -13 49 52 77 101 14 26 30 47 36 47 8 0 5 -80 -8
-190 -5 -35 -4 -35 9 6 8 23 17 81 21 130 4 49 15 121 25 159 44 167 54 238
53 390 -1 83 -7 186 -15 230 -13 78 -13 76 -13 -150z"/>
<path d="M4770 4382 c0 -4 10 -13 23 -21 22 -14 22 -14 3 8 -20 22 -26 25 -26
13z"/>
<path d="M5191 4317 c-1 -5 7 -34 16 -65 11 -36 18 -50 21 -36 1 11 -6 40 -17
65 -11 24 -20 40 -20 36z"/>
<path d="M1834 4164 c-7 -60 1 -517 10 -571 10 -58 18 -97 23 -125 3 -16 2
-28 -3 -28 -14 0 -125 121 -136 149 -6 14 -12 21 -15 14 -9 -25 115 -193 143
-193 16 0 44 -83 37 -109 -3 -12 4 -33 18 -52 15 -22 19 -34 11 -37 -7 -2 -12
-11 -12 -21 0 -9 -4 -21 -9 -26 -5 -6 -4 -43 1 -86 9 -69 8 -80 -11 -118 -12
-23 -28 -44 -36 -48 -8 -3 -15 -11 -15 -19 0 -8 -4 -14 -10 -14 -6 0 -10 -27
-10 -60 0 -33 4 -60 8 -60 9 0 34 -62 27 -69 -3 -2 -5 1 -5 8 0 7 -5 9 -10 6
-6 -4 -7 -12 -3 -18 13 -21 12 -56 -1 -51 -8 3 -16 -4 -19 -15 -6 -23 20 -50
48 -50 81 0 110 -15 120 -61 4 -20 11 -27 21 -23 8 3 14 1 14 -5 0 -6 14 -25
32 -42 l32 -32 -162 4 c-89 3 -162 2 -162 -2 0 -4 -10 -7 -22 -6 -15 1 -24 8
-26 23 -2 11 -29 46 -60 76 -31 30 -58 63 -60 73 -1 11 -4 28 -6 39 -3 22 -25
147 -32 184 -3 13 -18 37 -34 53 -16 15 -30 41 -32 56 -5 36 -26 72 -55 95
-12 10 -23 26 -23 35 0 10 -15 40 -33 67 -34 52 -63 119 -71 169 -3 16 -10 34
-16 40 -5 5 -10 18 -10 28 0 10 -3 18 -7 18 -9 0 -56 144 -56 168 0 10 -5 24
-12 32 -15 19 -58 112 -76 165 -7 22 -18 45 -25 50 -16 14 -64 115 -64 134 0
9 -9 22 -20 29 -11 7 -20 21 -20 32 0 12 -7 23 -15 26 -8 4 -12 10 -9 15 3 5
-4 9 -15 9 -11 0 -22 -4 -25 -9 -3 -5 -15 -11 -26 -14 -11 -3 -18 -1 -14 4 3
5 1 9 -5 9 -5 0 -11 -5 -13 -10 -2 -6 -50 -11 -121 -11 -64 -1 -117 -5 -117
-10 0 -15 -50 -10 -56 6 -4 10 -20 15 -44 15 -21 0 -40 5 -42 11 -2 7 -11 7
-28 0 -18 -7 -20 -10 -7 -10 9 -1 17 -5 17 -11 0 -12 -50 -13 -69 -1 -9 6 -26
1 -50 -12 -56 -33 -81 -64 -81 -102 0 -18 -5 -35 -10 -37 -7 -2 -7 -14 1 -36
6 -18 8 -39 5 -48 -3 -8 -1 -25 6 -37 6 -12 13 -49 15 -82 4 -77 20 -150 44
-196 11 -20 19 -44 19 -53 0 -9 4 -24 9 -34 13 -24 31 -91 35 -127 1 -16 10
-47 19 -69 10 -21 17 -42 17 -47 0 -5 9 -25 21 -45 23 -41 19 -64 -11 -64 -22
0 -26 -27 -21 -121 1 -31 -3 -51 -13 -62 -9 -9 -16 -23 -16 -31 0 -13 -15 -16
-91 -16 -94 0 -134 -11 -125 -36 4 -11 -5 -14 -44 -14 -28 0 -53 -1 -57 -2 -5
-2 -11 17 -14 42 -6 41 -6 42 -8 10 -1 -19 -7 -55 -15 -80 l-14 -45 -7 65 c-3
36 -10 137 -14 225 -5 92 -9 -501 -9 -1387 l-2 -1548 906 0 c857 0 905 1 900
18 -2 9 -8 41 -11 70 -8 64 -19 58 -33 -18 -19 -107 -13 8 8 175 35 269 62
361 169 588 28 60 51 111 51 114 0 14 126 284 260 559 87 175 156 331 168 375
25 91 50 251 53 344 l3 70 -96 98 c-81 83 -215 260 -234 312 -4 11 -12 7 -30
-14 -30 -36 -106 -69 -186 -80 -93 -13 -97 -7 -39 59 22 25 51 68 64 95 23 48
24 58 20 210 -2 106 -8 175 -18 205 -41 125 -88 368 -90 470 -2 58 -8 158 -14
223 -6 65 -9 170 -6 233 2 63 3 114 1 114 -3 0 -8 -25 -12 -56z m-706 -926
c17 -17 15 -67 -3 -74 -51 -20 -95 35 -55 68 26 21 41 23 58 6z m809 -250 c-3
-8 -6 -5 -6 6 -1 11 2 17 5 13 3 -3 4 -12 1 -19z m-459 -90 c3 -13 -3 -18 -22
-18 -20 0 -26 5 -26 21 0 15 5 20 22 17 13 -2 24 -11 26 -20z m-221 -104 c32
-9 29 -62 -4 -70 -12 -4 -30 -4 -38 0 -18 7 -20 47 -3 64 14 14 15 14 45 6z
m463 -404 c0 -5 -4 -10 -10 -10 -5 0 -10 5 -10 10 0 6 5 10 10 10 6 0 10 -4
10 -10z m-2 -58 c-11 -30 -38 -45 -38 -22 0 6 5 10 10 10 6 0 10 6 10 13 0 13
21 39 27 34 1 -2 -3 -18 -9 -35z m-1288 -201 c5 -11 10 -28 10 -38 -1 -16 -2
-16 -13 -2 -7 9 -18 14 -24 12 -7 -3 -13 0 -13 7 0 6 -4 8 -10 5 -17 -11 -12
-63 8 -69 9 -2 4 -4 -13 -3 -23 2 -32 9 -39 29 -8 23 -6 32 14 53 28 30 65 33
80 6z m995 -175 c23 -16 14 -46 -14 -46 -25 0 -34 14 -26 40 7 24 15 25 40 6z
m159 -125 c11 -12 14 -21 7 -26 -6 -3 -11 -2 -11 3 0 5 -12 7 -26 4 -16 -3
-23 -9 -20 -18 3 -8 1 -14 -3 -14 -14 0 -19 23 -10 48 10 27 40 29 63 3z m161
-421 c4 -6 -6 -10 -23 -10 -31 0 -42 -14 -42 -51 0 -11 -4 -17 -10 -14 -14 9
-13 58 2 73 15 15 64 16 73 2z m-835 -404 c0 -3 -4 -8 -10 -11 -5 -3 -10 -1
-10 4 0 6 5 11 10 11 6 0 10 -2 10 -4z m-165 -176 c3 -5 1 -10 -4 -10 -6 0
-11 5 -11 10 0 6 2 10 4 10 3 0 8 -4 11 -10z"/>
<path d="M1101 3201 c-10 -7 -10 -10 -1 -16 6 -4 16 -3 22 3 13 13 -4 23 -21
13z"/>
<path d="M1230 2762 c0 -5 7 -9 15 -9 8 0 15 4 15 9 0 4 -7 8 -15 8 -8 0 -15
-4 -15 -8z"/>
<path d="M3664 4080 c28 -153 62 -289 51 -205 -12 89 -30 173 -42 200 -12 26
-13 27 -9 5z"/>
<path d="M3242 4010 c0 -14 2 -19 5 -12 2 6 2 18 0 25 -3 6 -5 1 -5 -13z"/>
<path d="M3226 3949 c-8 -42 0 -50 9 -9 4 17 5 34 2 36 -2 3 -7 -10 -11 -27z"/>
<path d="M4126 3937 c3 -10 9 -15 12 -12 3 3 0 11 -7 18 -10 9 -11 8 -5 -6z"/>
<path d="M4720 3935 c0 -16 53 -74 63 -68 6 3 7 1 3 -6 -18 -28 125 -157 194
-175 18 -5 14 -1 -11 13 -20 11 -49 35 -65 53 -34 40 -70 105 -62 113 3 3 32
-1 64 -10 78 -21 188 -28 244 -17 l45 9 -80 8 c-44 4 -87 11 -95 16 -11 6 -8
8 10 7 31 -2 131 22 145 35 6 6 3 7 -10 3 -134 -40 -308 -32 -427 19 -10 4
-18 4 -18 0z"/>
<path d="M3206 3874 c-4 -14 -5 -28 -3 -31 3 -2 8 8 11 23 4 14 5 28 3 31 -3
2 -8 -8 -11 -23z"/>
<path d="M3711 3824 c0 -11 3 -14 6 -6 3 7 2 16 -1 19 -3 4 -6 -2 -5 -13z"/>
<path d="M4600 3815 c0 -4 13 -29 29 -54 16 -25 31 -53 32 -61 6 -28 -11 -118
-36 -189 -28 -84 -144 -322 -166 -341 -3 -3 -25 -34 -49 -70 -24 -36 -61 -83
-82 -106 -21 -22 -36 -44 -33 -47 3 -4 2 -5 -1 -2 -4 2 -28 -13 -54 -35 -57
-48 -183 -110 -225 -111 -16 0 -46 -7 -65 -14 -56 -22 -2 -19 90 5 82 21 139
44 205 85 69 43 74 38 68 -65 -2 -49 1 -115 7 -147 20 -102 71 -255 112 -336
46 -92 48 -87 -59 -163 -64 -45 -86 -69 -35 -37 48 31 116 85 175 142 63 61
80 91 20 36 -21 -19 -41 -35 -45 -35 -12 0 -59 98 -49 104 5 3 40 9 78 12 63
6 73 4 92 -15 19 -19 21 -33 22 -128 1 -133 6 -120 44 132 4 26 3 25 -8 -7 -6
-20 -14 -39 -17 -41 -3 -3 -4 99 -2 226 2 202 5 246 26 337 13 58 29 131 35
162 7 31 19 62 27 68 12 11 14 -10 15 -156 2 -210 1 -230 -17 -384 -22 -190
-42 -313 -74 -445 -35 -146 -42 -187 -32 -181 4 2 8 -44 10 -102 2 -116 9
-162 22 -162 9 0 17 33 23 100 4 33 4 33 5 -6 8 -191 54 -469 102 -614 43
-129 29 -115 -30 33 -32 78 -56 94 -46 31 3 -19 17 -57 31 -86 14 -28 23 -53
21 -55 -6 -6 -56 57 -75 96 -25 48 -40 105 -61 226 l-17 99 -15 -62 c-16 -62
-11 -120 16 -197 4 -11 -4 0 -17 24 -19 34 -25 40 -30 27 -11 -27 -35 -249
-42 -376 -7 -129 8 -446 25 -500 5 -19 21 -84 35 -144 29 -124 83 -272 95
-259 15 15 26 128 17 181 -9 55 1 99 30 127 10 10 10 20 3 40 -6 15 -7 32 -3
38 4 6 6 43 5 82 -2 50 3 87 18 129 24 70 25 80 4 46 -14 -23 -15 -14 -10 105
6 146 25 285 39 285 5 0 39 -31 75 -70 57 -62 69 -70 101 -70 37 0 114 30 125
49 4 5 -18 -1 -49 -15 -30 -14 -63 -24 -72 -22 -19 3 -86 145 -77 160 3 5 45
6 92 2 72 -5 101 -2 167 16 70 19 179 27 248 19 20 -3 23 -15 5 -22 -9 -4 -7
-6 3 -6 9 -1 26 -10 39 -21 13 -11 27 -20 31 -20 13 0 69 -61 85 -94 l16 -31
-32 33 c-44 45 -48 40 -7 -9 75 -87 147 -269 162 -406 6 -57 5 -58 -10 -28 -8
17 -13 21 -9 10 30 -101 38 -172 39 -347 l0 -188 152 0 151 0 24 38 c23 37 72
136 89 180 14 37 1 25 -22 -20 -16 -31 -23 -38 -30 -27 -5 8 -6 22 -3 32 3 9
1 17 -5 17 -6 0 -11 6 -11 13 0 16 -118 254 -143 289 -11 15 -16 31 -12 39 5
8 4 10 -3 5 -7 -4 -12 -1 -12 7 0 7 -11 24 -25 37 -14 13 -25 28 -25 34 0 6
-16 31 -35 54 -35 45 -51 79 -41 89 3 3 -2 12 -10 20 -8 9 -18 13 -21 9 -9 -9
-33 14 -33 33 0 9 -9 27 -20 41 -11 14 -20 36 -20 49 0 13 -3 21 -7 18 -10
-11 -33 14 -33 35 0 15 -4 18 -17 14 -10 -4 -14 -4 -10 0 4 4 2 13 -4 21 -7 7
-9 27 -5 44 5 26 1 36 -19 55 -27 25 -33 54 -11 54 17 0 29 27 16 35 -6 4 -10
1 -10 -4 0 -6 -4 -11 -9 -11 -5 0 -4 11 2 25 7 13 14 20 15 15 2 -6 8 -10 13
-10 5 0 4 9 -3 20 -13 20 -13 20 -31 -2 l-19 -23 5 27 c2 15 0 25 -4 22 -13
-8 -11 10 4 25 10 11 9 12 -2 6 -10 -6 -12 -2 -7 13 6 17 1 21 -34 27 -22 4
-40 11 -40 17 0 5 10 6 23 3 12 -3 17 -3 11 2 -13 10 -25 53 -15 53 5 0 13
-10 19 -22 6 -14 11 -17 11 -8 0 8 -8 26 -19 40 -11 14 -20 33 -20 43 0 27
-33 20 -47 -9 -14 -29 -6 -55 9 -33 6 10 7 7 3 -9 -4 -14 1 -37 14 -62 11 -21
24 -47 29 -57 31 -58 59 -153 46 -153 -6 0 -120 240 -148 310 -14 36 -35 97
-46 135 -12 39 -28 86 -37 105 -16 35 -37 101 -55 178 -5 23 -13 42 -16 42 -4
0 -7 12 -8 28 -2 42 -68 289 -72 267 -2 -11 -6 -27 -9 -35 -3 -8 -8 -24 -10
-34 -5 -30 -13 -32 -13 -5 0 28 -16 56 -26 47 -13 -14 -34 21 -64 108 -17 49
-33 96 -36 104 -87 309 -145 598 -159 795 -6 87 -5 93 28 170 38 89 54 155 37
155 -5 0 -10 4 -10 9 0 5 7 8 16 7 9 0 19 5 22 13 3 10 0 12 -12 8 -9 -4 -16
-2 -16 3 0 6 7 10 16 10 11 0 14 5 10 16 -5 13 3 15 52 14 31 -1 80 3 107 8
l50 10 -80 1 c-93 1 -174 20 -245 56 -28 14 -50 22 -50 17 0 -4 12 -25 28 -47
24 -36 27 -49 27 -120 0 -75 -3 -86 -47 -175 -106 -214 -132 -253 -186 -283
-27 -15 -72 -30 -98 -34 l-49 -6 18 24 c9 13 33 50 53 82 20 31 43 57 50 57 8
0 11 6 8 15 -4 8 0 30 8 48 57 125 110 294 124 392 3 28 10 57 15 66 6 12 -5
29 -42 65 -27 26 -49 44 -49 39z m224 -180 c11 -8 15 -15 8 -15 -6 0 -9 -8 -6
-17 4 -13 0 -11 -15 6 -34 38 -25 55 13 26z m33 -102 c-3 -10 -5 -2 -5 17 0
19 2 27 5 18 2 -10 2 -26 0 -35z m-20 -5 c-3 -7 -5 -2 -5 12 0 14 2 19 5 13 2
-7 2 -19 0 -25z m-83 -373 c-4 -8 -8 -15 -10 -15 -2 0 -4 7 -4 15 0 8 4 15 10
15 5 0 7 -7 4 -15z m61 -180 c9 -55 20 -113 24 -130 5 -16 21 -93 35 -170 36
-191 83 -365 115 -429 2 -5 -1 -6 -7 -2 -8 5 -12 -2 -12 -21 -1 -24 -2 -25
-11 -10 -5 9 -7 22 -3 29 4 7 3 8 -4 4 -8 -5 -12 2 -12 21 0 16 -6 37 -13 48
-26 39 -76 212 -101 345 -21 116 -46 458 -31 425 2 -5 11 -55 20 -110z m172
-777 c-3 -8 -6 -5 -6 6 -1 11 2 17 5 13 3 -3 4 -12 1 -19z m139 -94 c-4 -9 -9
-15 -11 -12 -3 3 -3 13 1 22 4 9 9 15 11 12 3 -3 3 -13 -1 -22z m-372 -54 c20
-28 36 -58 36 -67 0 -20 -60 -123 -72 -123 -4 0 -8 54 -8 120 0 66 2 120 4
120 2 0 20 -23 40 -50z m-21 -252 l-18 -53 -3 37 c-2 25 3 46 15 62 25 34 28
15 6 -46z m349 -205 c57 -65 143 -161 192 -213 78 -85 154 -180 143 -180 -3 0
-22 6 -43 13 -22 8 -74 17 -116 20 -117 10 -281 80 -372 159 l-37 33 14 40
c16 45 108 245 113 245 1 0 49 -53 106 -117z m365 -205 c-3 -8 -6 -5 -6 6 -1
11 2 17 5 13 3 -3 4 -12 1 -19z m60 -110 c-3 -8 -6 -5 -6 6 -1 11 2 17 5 13 3
-3 4 -12 1 -19z m-527 -93 c56 -11 60 -13 25 -13 -22 0 -56 6 -75 13 -44 17
-32 17 50 0z m668 -270 c-3 -3 -9 2 -12 12 -6 14 -5 15 5 6 7 -7 10 -15 7 -18z"/>
<path d="M3765 3755 l-22 -50 29 -3 c34 -4 39 -27 23 -109 -10 -54 11 -32 59
61 32 61 48 80 90 107 58 37 59 36 -73 41 l-83 3 -23 -50z"/>
<path d="M3590 3784 c-41 -7 -100 -23 -131 -34 -60 -21 -134 -27 -144 -10 -3
6 -12 10 -18 10 -7 0 2 -11 18 -25 l30 -24 -46 -43 c-25 -24 -55 -61 -66 -83
-20 -41 -37 -105 -27 -105 3 0 27 18 53 40 26 22 50 40 54 40 4 0 7 -15 7 -32
1 -62 54 -149 81 -132 8 5 8 9 -3 15 -8 4 -21 27 -28 51 -7 24 -17 47 -22 53
-4 5 -8 22 -8 37 0 23 7 32 33 43 17 8 28 14 24 15 -4 0 -3 9 3 20 10 19 12
19 37 2 15 -9 24 -12 20 -6 -8 14 43 37 70 32 22 -4 63 -85 70 -138 4 -27 9
-37 19 -33 20 7 17 77 -6 143 -10 30 -17 57 -14 59 2 2 27 6 55 9 l52 5 -7
-49 -7 -49 25 40 c28 44 35 70 11 39 -15 -17 -15 -13 -9 54 l6 72 -28 -1 c-16
-1 -63 -8 -104 -15z"/>
<path d="M3180 3695 c-34 -19 -49 -36 -63 -68 -12 -30 -13 -37 -2 -23 8 10 16
24 19 30 3 7 8 7 14 -2 7 -11 11 -8 16 13 4 15 21 35 41 47 19 11 35 22 35 24
0 8 -16 2 -60 -21z"/>
<path d="M2240 3653 c1 -4 18 -39 39 -76 28 -50 40 -64 45 -52 4 11 -9 38 -39
77 -25 33 -45 56 -45 51z"/>
<path d="M2438 3643 c7 -3 16 -2 19 1 4 3 -2 6 -13 5 -11 0 -14 -3 -6 -6z"/>
<path d="M2160 3633 c0 -6 13 -67 29 -135 77 -323 176 -519 306 -607 50 -33
54 -27 25 37 -20 45 -17 50 14 27 37 -28 35 -15 -4 45 -22 32 -40 65 -40 72 1
16 24 48 36 48 5 0 18 13 28 28 17 25 25 29 69 28 55 -1 58 -4 72 -89 3 -21
10 -35 14 -33 8 6 -3 98 -14 116 -3 6 4 10 17 10 16 0 19 3 10 9 -8 4 -19 19
-26 32 -7 14 -24 26 -44 30 -17 3 -38 11 -45 17 -9 8 -31 1 -82 -23 -74 -36
-104 -41 -136 -25 -25 14 -24 2 3 -27 16 -17 19 -26 11 -34 -16 -16 -69 60
-137 193 -44 86 -56 119 -61 175 -5 44 -14 78 -26 94 -10 13 -19 19 -19 12z"/>
<path d="M5135 3630 c-16 -7 -17 -9 -3 -9 9 -1 20 4 23 9 7 11 7 11 -20 0z"/>
<path d="M1891 3604 c0 -11 3 -14 6 -6 3 7 2 16 -1 19 -3 4 -6 -2 -5 -13z"/>
<path d="M1900 3573 c0 -32 67 -209 109 -289 73 -139 196 -314 270 -384 16
-15 36 -71 66 -185 39 -146 88 -245 122 -245 8 0 24 -6 36 -14 12 -8 41 -17
64 -21 29 -5 44 -13 48 -26 4 -10 12 -19 18 -20 7 0 2 -4 -11 -10 -13 -5 -20
-13 -17 -19 9 -15 27 -12 20 3 -4 6 -1 5 7 -4 7 -9 33 -26 58 -39 25 -13 39
-25 33 -27 -9 -3 -10 -10 -3 -22 5 -10 7 -21 3 -24 -9 -10 -83 35 -76 46 3 6
1 7 -5 3 -7 -4 -47 23 -94 63 -45 39 -84 69 -86 67 -12 -12 83 -147 100 -143
7 1 12 -7 13 -17 0 -11 6 -21 14 -24 10 -3 12 0 8 11 -11 30 6 26 62 -13 31
-22 61 -40 65 -40 5 0 25 -12 45 -27 20 -16 66 -42 104 -59 37 -17 70 -34 74
-38 11 -11 5 -123 -12 -213 -18 -94 -70 -235 -122 -326 -18 -33 -33 -63 -33
-67 0 -4 -7 -10 -15 -14 -19 -7 -19 -1 6 79 11 36 19 71 17 77 -3 7 -12 -15
-22 -48 -11 -32 -22 -63 -26 -69 -4 -5 -11 -26 -15 -45 -4 -19 -18 -65 -30
-103 -13 -37 -19 -67 -14 -67 5 0 9 6 9 13 0 16 36 48 45 39 3 -4 3 2 -1 13
-6 15 -4 17 9 12 9 -3 17 -2 17 3 0 14 75 85 116 111 19 11 34 26 34 31 0 6 3
8 6 5 4 -4 -11 -28 -32 -54 -35 -43 -31 -41 41 24 120 110 284 233 367 277
l73 39 -36 -39 c-82 -89 -175 -227 -238 -352 -68 -138 -90 -203 -105 -324 -7
-63 -21 -129 -31 -147 -9 -18 -14 -35 -12 -37 6 -6 35 45 74 131 90 199 117
253 165 323 56 82 250 282 274 282 15 0 19 -16 5 -24 -5 -3 -11 -15 -14 -27
-4 -15 -2 -19 9 -15 17 7 17 2 0 -60 -35 -122 -26 -133 14 -18 12 38 19 75 16
98 -3 25 2 49 16 74 l20 37 -21 -27 c-20 -25 -26 -26 -79 -21 -88 7 -87 4 -44
90 24 49 47 118 62 185 12 58 25 110 29 115 3 5 26 20 51 34 25 14 57 33 73
43 l27 18 44 -93 c58 -122 80 -193 81 -251 0 -27 3 -48 7 -48 3 0 9 -8 12 -17
3 -10 4 9 1 42 -4 66 -39 180 -87 283 -74 163 -92 209 -72 189 6 -6 64 46 64
58 0 3 -20 -8 -44 -24 -96 -66 -261 -151 -293 -151 -52 0 -508 228 -573 286
-28 26 -49 52 -46 59 3 8 -4 12 -19 11 -13 0 -21 -4 -18 -8 4 -8 -42 -13 -92
-9 -53 5 -151 65 -157 96 -1 11 -7 23 -13 27 -24 18 20 6 73 -19 39 -18 72
-27 105 -26 27 1 50 3 53 5 2 3 -5 27 -16 54 -10 27 -30 85 -43 128 l-24 80
-59 12 c-94 19 -150 51 -232 134 -145 144 -268 342 -332 530 -32 95 -40 113
-40 93z m655 -820 c4 -21 9 -47 13 -58 6 -23 10 -96 4 -90 -2 2 -8 21 -13 42
-29 117 -33 143 -21 143 6 0 14 -17 17 -37z m-101 -152 c-5 -7 -24 11 -35 32
-11 20 -9 20 13 -3 13 -14 23 -27 22 -29z m143 -15 c-1 -19 -6 -31 -10 -27 -7
7 0 61 8 61 2 0 3 -15 2 -34z m179 -227 c3 -6 -5 -3 -20 6 -16 11 -26 13 -26
6 0 -6 15 -20 33 -31 17 -11 27 -20 22 -20 -6 0 -21 7 -33 16 -12 8 -27 12
-34 8 -6 -4 -9 -3 -6 2 3 5 8 17 11 27 5 14 11 16 26 7 11 -5 23 -15 27 -21z"/>
<path d="M3450 3561 c0 -6 5 -13 10 -16 6 -3 10 1 10 9 0 9 -4 16 -10 16 -5 0
-10 -4 -10 -9z"/>
<path d="M3035 3459 c-19 -38 -35 -73 -35 -77 0 -10 49 76 65 116 24 56 7 35
-30 -39z"/>
<path d="M5001 3478 c1 -24 4 -68 9 -98 7 -50 7 -47 9 43 0 59 -3 97 -9 97 -5
0 -10 -19 -9 -42z"/>
<path d="M2257 3480 c-3 -12 -1 -18 5 -14 5 3 22 -4 36 -17 25 -22 24 -21 -3
11 -16 19 -31 36 -31 38 -1 1 -4 -6 -7 -18z"/>
<path d="M2740 3452 c0 -17 98 -147 146 -192 46 -44 47 -44 20 -8 -15 20 -25
42 -22 47 4 5 2 12 -4 16 -5 3 -10 0 -10 -7 0 -7 -11 4 -25 24 -14 20 -25 47
-25 60 0 18 -2 20 -10 8 -5 -8 -11 -12 -12 -10 -29 39 -58 70 -58 62z"/>
<path d="M2980 3349 c-7 -11 -10 -23 -7 -25 2 -2 9 7 15 21 14 30 7 33 -8 4z"/>
<path d="M2488 3293 c7 -3 16 -2 19 1 4 3 -2 6 -13 5 -11 0 -14 -3 -6 -6z"/>
<path d="M5394 3161 c3 -18 6 -41 7 -50 0 -9 5 -3 9 13 7 21 5 35 -7 50 -15
20 -15 20 -9 -13z"/>
<path d="M2780 3150 c0 -5 5 -10 11 -10 5 0 7 5 4 10 -3 6 -8 10 -11 10 -2 0
-4 -4 -4 -10z"/>
<path d="M4105 3100 c-9 -17 -15 -36 -13 -42 2 -6 12 6 22 26 22 46 14 60 -9
16z"/>
<path d="M5415 3081 c-8 -46 12 -193 61 -447 111 -582 339 -1206 644 -1759 15
-27 49 -92 75 -143 26 -51 49 -91 52 -89 12 13 -54 395 -103 592 -30 120 -128
428 -195 615 -27 74 -47 141 -44 148 3 7 1 11 -4 8 -10 -6 -35 54 -26 62 3 3
5 -1 5 -8 0 -7 3 -11 6 -8 7 7 -52 146 -141 333 -37 77 -87 187 -112 245 -24
57 -53 124 -64 147 -33 72 -119 295 -119 308 0 7 -6 18 -14 24 -12 10 -15 5
-21 -28z m49 -131 c0 -14 7 -29 14 -33 6 -4 12 -14 12 -21 0 -8 7 -27 15 -42
8 -16 15 -39 15 -51 0 -12 5 -23 12 -25 8 -3 8 -9 0 -24 -6 -10 -12 -13 -12
-6 0 6 -6 12 -13 12 -8 0 -25 40 -44 100 -16 55 -25 96 -19 93 8 -5 8 -3 0 8
-6 8 -14 39 -18 69 l-6 55 21 -55 c12 -30 22 -66 23 -80z m116 -274 c0 -6 7
-23 14 -38 27 -51 -2 -29 -33 26 -38 65 -39 77 -6 46 14 -13 25 -28 25 -34z"/>
<path d="M2540 3085 c0 -19 35 -85 44 -85 7 0 -15 62 -31 85 -13 19 -13 19
-13 0z"/>
<path d="M3935 3030 c-4 -6 -21 -17 -38 -24 l-32 -14 45 0 c25 -1 54 4 65 9
16 7 13 8 -13 4 -30 -4 -32 -3 -22 15 11 20 6 28 -5 10z"/>
<path d="M5097 2910 c-3 -11 -1 -20 4 -20 5 0 9 9 9 20 0 11 -2 20 -4 20 -2 0
-6 -9 -9 -20z"/>
<path d="M33 2760 c0 -25 2 -35 4 -22 2 12 2 32 0 45 -2 12 -4 2 -4 -23z"/>
<path d="M3680 2760 c8 -5 30 -10 49 -10 45 0 37 6 -19 14 -31 4 -40 3 -30 -4z"/>
<path d="M3840 2760 c-34 -7 -34 -7 -5 -8 17 0 41 4 55 8 33 11 0 11 -50 0z"/>
<path d="M5100 2741 c0 -17 5 -31 11 -31 7 0 9 -10 5 -27 -5 -24 -5 -25 5 -10
12 20 4 83 -11 92 -6 4 -10 -7 -10 -24z"/>
<path d="M88 2743 c7 -3 16 -2 19 1 4 3 -2 6 -13 5 -11 0 -14 -3 -6 -6z"/>
<path d="M5131 2621 c-1 -32 2 -42 10 -34 7 7 7 21 1 44 l-10 34 -1 -44z"/>
<path d="M5135 2559 c-4 -6 -5 -12 -2 -15 2 -3 7 2 10 11 7 17 1 20 -8 4z"/>
<path d="M5151 2525 c-1 -17 -3 -18 -11 -5 -8 13 -10 13 -10 -2 0 -9 4 -19 10
-23 5 -3 7 -11 4 -18 -2 -7 0 -42 6 -77 5 -36 11 -76 13 -90 12 -80 46 -246
57 -275 5 -14 10 -38 10 -51 0 -14 4 -22 10 -19 5 3 7 0 4 -8 -3 -8 8 -57 24
-110 22 -76 31 -94 40 -85 10 10 11 5 7 -22 l-6 -35 16 37 c16 35 15 40 -19
165 -20 70 -41 136 -46 145 -6 10 -10 30 -10 45 0 16 -9 57 -20 93 -11 36 -20
75 -20 88 0 13 -4 21 -9 18 -5 -3 -8 13 -8 37 0 57 -13 126 -26 134 -6 4 -8 0
-4 -10 3 -10 2 -17 -3 -17 -12 0 -13 37 -2 42 4 2 5 17 1 33 -4 19 -7 23 -8
10z m159 -709 c0 -3 -4 -8 -10 -11 -5 -3 -10 -1 -10 4 0 6 5 11 10 11 6 0 10
-2 10 -4z"/>
<path d="M2635 2520 c-3 -5 1 -10 9 -10 8 0 18 5 21 10 3 6 -1 10 -9 10 -8 0
-18 -4 -21 -10z"/>
<path d="M5420 2414 c1 -42 24 -185 55 -334 2 -14 7 -38 11 -55 34 -174 211
-695 310 -914 14 -29 26 -58 27 -65 1 -6 5 -13 8 -16 3 -3 25 -41 48 -85 42
-78 71 -119 78 -112 3 4 -26 70 -113 254 -19 40 -34 77 -34 83 0 6 -4 18 -10
28 -5 9 -23 48 -40 85 -116 261 -225 619 -300 987 -31 150 -40 184 -40 144z"/>
<path d="M5101 2394 c0 -11 3 -14 6 -6 3 7 2 16 -1 19 -3 4 -6 -2 -5 -13z"/>
<path d="M5112 2350 c0 -14 2 -19 5 -12 2 6 2 18 0 25 -3 6 -5 1 -5 -13z"/>
<path d="M2690 2266 c0 -2 7 -7 16 -10 8 -3 12 -2 9 4 -6 10 -25 14 -25 6z"/>
<path d="M2635 2190 c10 -11 23 -20 28 -20 6 0 0 9 -13 20 -13 11 -25 20 -28
20 -3 0 3 -9 13 -20z"/>
<path d="M4622 2100 c0 -19 2 -27 5 -17 2 9 2 25 0 35 -3 9 -5 1 -5 -18z"/>
<path d="M4260 2090 c-9 -6 -10 -10 -3 -10 6 0 15 5 18 10 8 12 4 12 -15 0z"/>
<path d="M2581 2002 c-32 -122 -131 -318 -218 -432 -155 -204 -239 -355 -376
-680 -138 -327 -173 -480 -164 -710 3 -80 9 -154 13 -163 5 -14 21 -17 108
-17 l102 0 64 178 c35 97 92 254 127 347 36 94 68 190 73 215 12 62 81 274
150 460 31 85 69 205 84 265 15 61 34 132 42 158 11 35 15 96 15 233 1 102 -1
187 -3 189 -2 3 -10 -17 -17 -43z"/>
<path d="M3480 2010 c-8 -38 -8 -50 -1 -50 17 0 22 19 12 37 -6 10 -11 16 -11
13z"/>
<path d="M4010 1905 c1 -26 2 -28 11 -12 8 14 8 22 0 30 -8 8 -11 3 -11 -18z"/>
<path d="M3982 1900 c0 -14 2 -19 5 -12 2 6 2 18 0 25 -3 6 -5 1 -5 -13z"/>
<path d="M4606 1893 c-15 -82 -17 -123 -10 -202 l8 -86 7 155 c3 85 5 156 4
158 -2 2 -6 -9 -9 -25z"/>
<path d="M3570 1766 c0 -8 5 -18 10 -21 6 -3 10 1 10 9 0 8 -4 18 -10 21 -5 3
-10 -1 -10 -9z"/>
<path d="M5330 1720 c-6 -22 -8 -45 -4 -51 4 -6 10 -25 15 -43 4 -17 19 -62
32 -99 l24 -68 13 30 c7 17 17 28 22 25 12 -8 5 17 -32 111 -15 39 -31 85 -34
103 -10 43 -23 40 -36 -8z m38 -55 c-3 -3 -9 2 -12 12 -6 14 -5 15 5 6 7 -7
10 -15 7 -18z"/>
<path d="M3591 1706 c-1 -39 -32 -106 -48 -106 -11 0 -11 -4 -1 -20 13 -20 13
-19 22 7 13 42 27 57 37 41 11 -16 10 35 -1 77 l-8 30 -1 -29z"/>
<path d="M3668 1689 c-23 -30 -23 -31 -29 -7 -4 13 -7 -28 -8 -89 l-1 -113 38
1 c36 1 36 2 7 8 -27 5 -30 10 -33 48 -4 56 13 116 44 153 14 16 21 30 15 30
-6 0 -21 -14 -33 -31z"/>
<path d="M2794 1665 c-3 -8 -4 -20 -2 -27 3 -7 7 -1 10 15 6 29 1 36 -8 12z"/>
<path d="M4025 1548 c-108 -95 -146 -133 -93 -94 37 28 47 27 78 -1 8 -8 23
-19 32 -26 16 -11 9 -19 -62 -70 -44 -33 -102 -79 -130 -104 -27 -24 -54 -42
-60 -38 -6 3 -24 -8 -41 -24 -17 -17 -52 -45 -77 -63 -26 -17 -48 -32 -50 -34
-2 -1 8 -13 22 -27 14 -15 26 -31 26 -38 0 -7 -22 -47 -50 -89 -47 -74 -90
-158 -105 -207 -5 -19 -13 -23 -43 -23 -40 1 -106 13 -134 25 -13 5 -17 2 -15
-12 0 -10 -15 -45 -35 -78 -35 -57 -108 -240 -108 -267 0 -7 18 32 39 88 42
110 51 128 90 191 18 30 33 43 49 43 28 0 28 -6 -7 -71 -29 -53 -55 -139 -42
-139 13 1 61 74 61 94 0 31 31 106 44 106 6 0 18 -9 26 -19 7 -11 17 -18 21
-15 4 2 10 0 14 -6 4 -6 10 -8 14 -6 14 9 15 -115 1 -280 -13 -157 -13 -364 0
-364 6 0 10 60 11 158 2 195 3 225 19 339 7 51 10 113 8 138 -5 43 -1 53 65
163 90 150 107 188 107 240 0 41 5 47 108 150 79 80 141 131 237 194 l130 86
25 -22 c22 -19 23 -19 8 -1 -14 18 -79 141 -89 171 -2 6 -44 -25 -94 -68z"/>
<path d="M4601 1584 c0 -11 3 -14 6 -6 3 7 2 16 -1 19 -3 4 -6 -2 -5 -13z"/>
<path d="M3898 1554 c-16 -8 -28 -17 -28 -19 0 -11 19 -4 41 15 29 23 24 25
-13 4z"/>
<path d="M3808 1513 c7 -3 16 -2 19 1 4 3 -2 6 -13 5 -11 0 -14 -3 -6 -6z"/>
<path d="M4244 1454 c-18 -14 -18 -15 4 -4 12 6 22 13 22 15 0 8 -5 6 -26 -11z"/>
<path d="M2583 1400 c0 -30 2 -43 4 -27 2 15 2 39 0 55 -2 15 -4 2 -4 -28z"/>
<path d="M3483 1387 c-12 -34 -31 -106 -44 -160 -12 -54 -25 -95 -30 -90 -4 4
-10 33 -12 63 -3 53 -3 52 -5 -15 -2 -70 -2 -70 26 -72 15 -1 37 3 48 8 18 9
32 6 74 -15 62 -31 66 -32 73 -6 3 11 1 17 -4 14 -15 -9 -116 25 -123 42 -11
29 -6 159 9 223 9 35 14 65 12 67 -2 2 -13 -24 -24 -59z"/>
<path d="M2817 1393 c-4 -3 -7 -11 -7 -17 0 -6 5 -5 12 2 6 6 9 14 7 17 -3 3
-9 2 -12 -2z"/>
<path d="M2573 1275 c0 -22 2 -30 4 -17 2 12 2 30 0 40 -3 9 -5 -1 -4 -23z"/>
<path d="M2694 1228 l-19 -23 23 19 c12 11 22 21 22 23 0 8 -8 2 -26 -19z"/>
<path d="M3673 1208 c-27 -30 -61 -84 -48 -76 12 7 79 98 72 98 -2 0 -13 -10
-24 -22z"/>
<path d="M2561 1189 c0 -19 -7 -58 -15 -85 -8 -27 -24 -103 -36 -169 -12 -66
-28 -132 -36 -147 -17 -32 -18 -51 -1 -43 6 4 4 0 -5 -7 -27 -23 -37 -79 -19
-108 10 -15 11 -21 4 -17 -9 6 -13 1 -13 -15 0 -13 6 -30 13 -37 6 -8 7 -11 2
-8 -6 3 -11 -16 -11 -51 0 -32 -4 -79 -8 -105 -7 -44 -9 -47 -21 -30 -8 10
-10 19 -6 21 5 1 6 14 3 27 -2 14 0 25 5 25 6 0 8 12 5 26 -3 19 -1 25 7 20 7
-4 11 0 10 11 -1 25 -17 71 -18 54 -1 -8 -4 -11 -7 -8 -4 4 -2 12 3 19 6 7 13
29 16 48 11 62 -11 10 -63 -151 -28 -84 -54 -157 -58 -163 -5 -6 -28 -63 -51
-126 -23 -63 -47 -125 -52 -138 -5 -13 -9 -25 -9 -28 0 -3 33 -4 73 -2 l72 3
21 82 c12 45 47 157 77 250 37 112 58 193 62 243 4 41 13 105 21 142 8 39 11
87 7 113 -3 25 -2 45 3 45 14 0 36 58 28 71 -4 7 -3 9 3 6 9 -6 22 21 23 45 0
15 -25 3 -33 -16 -17 -42 -18 -2 -2 93 9 55 15 110 12 123 -3 16 -5 12 -6 -13z
m-159 -701 c-6 -6 -7 0 -4 19 5 21 7 23 10 9 2 -10 0 -22 -6 -28z m3 -28 c-3
-5 -12 -10 -18 -10 -7 0 -6 4 3 10 19 12 23 12 15 0z m-25 -54 c0 -3 -4 -8
-10 -11 -5 -3 -10 -1 -10 4 0 6 5 11 10 11 6 0 10 -2 10 -4z m34 -99 c-8 -46
-23 -57 -21 -14 1 19 6 32 11 29 5 -3 6 2 3 12 -4 10 -3 15 3 11 6 -3 8 -21 4
-38z m-37 -99 c-3 -8 -6 -5 -6 6 -1 11 2 17 5 13 3 -3 4 -12 1 -19z m-34 -140
c-3 -16 -9 -28 -14 -28 -12 0 -11 4 3 35 14 31 18 29 11 -7z"/>
<path d="M5596 1197 c3 -10 9 -15 12 -12 3 3 0 11 -7 18 -10 9 -11 8 -5 -6z"/>
<path d="M2654 1178 c1 -14 -5 -23 -14 -23 -14 0 -28 -18 -43 -58 -4 -11 -3
-16 3 -12 6 3 10 0 10 -7 0 -9 3 -9 10 2 13 20 12 39 -1 20 -8 -12 -10 -12 -7
4 2 11 8 19 13 19 11 0 55 55 55 69 0 4 -6 8 -13 8 -8 0 -13 -10 -13 -22z"/>
<path d="M5290 1100 c-10 -7 1 -8 35 -4 28 4 52 8 54 10 10 9 -75 3 -89 -6z"/>
<path d="M3528 1093 c7 -3 16 -2 19 1 4 3 -2 6 -13 5 -11 0 -14 -3 -6 -6z"/>
<path d="M5290 1070 c-17 -6 -9 -7 25 -3 28 3 52 7 54 9 8 7 -54 2 -79 -6z"/>
<path d="M2587 1051 c-4 -17 -3 -21 5 -13 5 5 8 16 6 23 -3 8 -7 3 -11 -10z"/>
<path d="M5160 1043 c-55 -21 -59 -23 -25 -19 22 3 60 12 85 19 34 10 40 14
25 18 -11 3 -49 -5 -85 -18z"/>
<path d="M5592 1050 c0 -14 2 -19 5 -12 2 6 2 18 0 25 -3 6 -5 1 -5 -13z"/>
<path d="M5343 1053 c15 -2 39 -2 55 0 15 2 2 4 -28 4 -30 0 -43 -2 -27 -4z"/>
<path d="M3409 1018 c4 -28 6 -29 9 -9 2 13 0 27 -5 32 -6 6 -7 -3 -4 -23z"/>
<path d="M5278 1043 c7 -3 16 -2 19 1 4 3 -2 6 -13 5 -11 0 -14 -3 -6 -6z"/>
<path d="M5068 1013 c7 -3 16 -2 19 1 4 3 -2 6 -13 5 -11 0 -14 -3 -6 -6z"/>
<path d="M2542 850 c0 -14 2 -19 5 -12 2 6 2 18 0 25 -3 6 -5 1 -5 -13z"/>
<path d="M5950 817 c0 -3 9 -26 20 -51 11 -26 20 -50 21 -54 1 -4 13 -31 26
-60 12 -29 23 -59 23 -67 0 -7 4 -16 9 -20 5 -3 13 -20 16 -38 4 -17 20 -70
35 -117 15 -47 31 -100 35 -118 5 -26 10 -31 18 -23 9 9 8 14 -2 20 -8 5 -11
16 -8 25 4 9 -2 40 -12 69 -10 28 -27 81 -39 117 -32 98 -64 183 -77 205 -7
11 -18 37 -24 57 -10 30 -41 73 -41 55z"/>
<path d="M5524 731 c4 -6 16 -16 28 -22 15 -8 18 -8 14 0 -4 6 -16 16 -28 22
-15 8 -18 8 -14 0z"/>
<path d="M4097 636 c-12 -13 -21 -37 -22 -52 0 -27 -3 -29 -35 -27 l-35 1 33
-10 c35 -12 41 -36 20 -83 -10 -23 -38 -36 -38 -17 0 9 -1 9 -68 15 -74 7 -32
-9 100 -37 132 -29 152 -29 154 -5 0 8 2 27 2 42 1 18 9 31 25 37 18 7 19 9 3
9 -14 1 -17 6 -12 24 4 12 10 39 13 59 5 34 4 37 -23 43 -16 4 -44 11 -63 15
-28 8 -36 6 -54 -14z m20 -64 c-1 -21 -7 -37 -12 -37 -6 0 -8 5 -6 10 3 6 4
25 3 43 -1 21 2 31 8 27 6 -4 9 -23 7 -43z"/>
<path d="M3431 620 c0 -33 1 -34 11 -12 8 17 8 26 0 34 -9 9 -12 4 -11 -22z"/>
<path d="M5640 603 c0 -5 7 -18 15 -29 13 -18 14 -18 8 4 -5 22 -23 41 -23 25z"/>
<path d="M3918 573 c6 -2 18 -2 25 0 6 3 1 5 -13 5 -14 0 -19 -2 -12 -5z"/>
<path d="M3968 563 c6 -2 18 -2 25 0 6 3 1 5 -13 5 -14 0 -19 -2 -12 -5z"/>
<path d="M6321 544 c0 -11 3 -14 6 -6 3 7 2 16 -1 19 -3 4 -6 -2 -5 -13z"/>
<path d="M4358 473 c7 -3 16 -2 19 1 4 3 -2 6 -13 5 -11 0 -14 -3 -6 -6z"/>
<path d="M4810 449 c-19 -17 -26 -26 -15 -21 18 9 64 52 54 52 -2 0 -20 -14
-39 -31z"/>
<path d="M6286 444 c-4 -14 -5 -28 -3 -31 3 -2 8 8 11 23 4 14 5 28 3 31 -3 2
-8 -8 -11 -23z"/>
<path d="M4447 424 c-4 -4 -7 -19 -6 -33 l0 -26 10 24 c10 26 8 47 -4 35z"/>
<path d="M3935 409 c79 -17 113 -20 60 -4 -27 8 -61 14 -75 14 -17 -1 -13 -4
15 -10z"/>
<path d="M4212 394 c15 -14 113 -33 123 -23 7 7 5 10 -5 8 -8 -1 -28 3 -43 9
-29 12 -85 17 -75 6z"/>
<path d="M4360 370 c-8 -5 -12 -10 -7 -11 4 -1 12 -3 17 -4 6 -1 15 -3 20 -4
6 0 10 -11 10 -22 0 -19 -4 -21 -32 -14 -18 4 -44 9 -58 11 -22 4 -22 3 5 -10
17 -7 42 -16 57 -20 24 -5 28 -2 38 30 10 30 10 38 -1 45 -18 11 -30 11 -49
-1z"/>
<path d="M6262 371 c-3 -21 -98 -207 -134 -259 -17 -26 -45 -62 -62 -80 l-31
-33 68 2 c43 1 67 6 67 14 0 21 -13 25 -26 7 -7 -9 -14 -12 -14 -5 0 6 7 19
16 27 8 9 11 16 5 16 -5 0 -13 -5 -16 -10 -3 -6 -12 -10 -18 -10 -7 1 -2 9 11
19 23 20 31 38 11 25 -8 -4 -7 0 1 15 6 12 15 19 21 16 5 -4 9 2 9 12 1 10 17
47 36 83 l35 65 -5 -87 c-3 -47 -10 -108 -16 -133 -10 -44 -8 -66 5 -53 10 10
46 309 42 346 -2 20 -4 31 -5 23z"/>
<path d="M4195 351 c6 -5 28 -11 50 -15 25 -4 34 -3 25 2 -22 13 -87 24 -75
13z"/>
<path d="M6166 323 c-6 -14 -5 -15 5 -6 7 7 10 15 7 18 -3 3 -9 -2 -12 -12z"/>
<path d="M4070 255 c-19 -19 -29 -35 -24 -35 6 0 19 9 29 20 25 27 31 25 45
-12 7 -18 14 -28 16 -22 4 9 -22 84 -29 84 -2 0 -18 -16 -37 -35z"/>
<path d="M6090 251 c0 -6 4 -13 10 -16 6 -3 7 1 4 9 -7 18 -14 21 -14 7z"/>
<path d="M4084 213 c-8 -31 -30 -52 -56 -53 -20 0 -24 15 -8 25 6 3 10 12 10
18 -1 7 -10 1 -21 -13 -20 -23 -20 -25 -2 -37 39 -26 53 -47 47 -67 -8 -27
-16 -34 -21 -20 -2 7 -13 9 -25 6 -13 -3 -19 -1 -15 5 4 6 -4 8 -20 5 -18 -3
-24 -1 -19 6 5 8 1 10 -11 5 -12 -4 -9 4 11 25 17 18 25 32 20 32 -16 0 -68
-59 -60 -67 8 -9 299 -83 304 -79 4 5 -29 89 -39 100 -4 5 -7 -7 -6 -27 1 -19
5 -33 10 -30 4 2 7 -1 7 -6 0 -6 -9 -11 -21 -11 -11 0 -17 4 -14 10 4 7 -3 8
-21 4 -19 -5 -25 -4 -20 4 5 8 -3 10 -25 5 l-33 -6 20 34 c16 28 27 35 57 37
42 4 47 18 18 53 -17 20 -22 22 -33 10 -11 -12 -10 -13 3 -8 11 4 20 -3 28
-19 10 -24 10 -25 -11 -18 -13 3 -23 7 -23 8 0 0 -5 10 -11 21 -7 12 -8 29 -3
42 5 13 4 25 -1 28 -5 3 -13 -7 -16 -22z"/>
<path d="M4040 194 c0 -8 5 -12 10 -9 6 4 8 11 5 16 -9 14 -15 11 -15 -7z"/>
<path d="M6302 100 c0 -19 2 -27 5 -17 2 9 2 25 0 35 -3 9 -5 1 -5 -18z"/>
<path d="M4025 110 c-3 -5 -1 -10 4 -10 6 0 11 5 11 10 0 6 -2 10 -4 10 -3 0
-8 -4 -11 -10z"/>
<path d="M4095 90 c3 -5 8 -10 11 -10 2 0 4 5 4 10 0 6 -5 10 -11 10 -5 0 -7
-4 -4 -10z"/>
<path d="M3091 44 c0 -11 3 -14 6 -6 3 7 2 16 -1 19 -3 4 -6 -2 -5 -13z"/>
<path d="M6181 34 c0 -11 3 -14 6 -6 3 7 2 16 -1 19 -3 4 -6 -2 -5 -13z"/>
</g>
</svg>
